<mxfile host="Electron" modified="2023-06-12T14:13:55.863Z" agent="Mozilla/5.0 (Windows NT 10.0; Win64; x64) AppleWebKit/537.36 (KHTML, like Gecko) draw.io/21.3.7 Chrome/112.0.5615.204 Electron/24.5.0 Safari/537.36" etag="cvZeQB330SxJG2xyhBey" version="21.3.7" type="device">
  <diagram name="Page-1" id="EXwz8MQ9ET9Fe5T327EA">
    <mxGraphModel dx="979" dy="592" grid="1" gridSize="10" guides="1" tooltips="1" connect="1" arrows="1" fold="1" page="1" pageScale="1" pageWidth="850" pageHeight="1100" math="1" shadow="0">
      <root>
        <mxCell id="0" />
        <mxCell id="1" parent="0" />
        <mxCell id="7k_Y_bSzuQ6GdUpV7boS-1" value="" style="endArrow=classic;html=1;rounded=0;" parent="1" edge="1">
          <mxGeometry width="50" height="50" relative="1" as="geometry">
            <mxPoint x="220" y="270" as="sourcePoint" />
            <mxPoint x="480" y="270" as="targetPoint" />
          </mxGeometry>
        </mxCell>
        <mxCell id="7k_Y_bSzuQ6GdUpV7boS-2" value="" style="endArrow=classic;html=1;rounded=0;" parent="1" edge="1">
          <mxGeometry width="50" height="50" relative="1" as="geometry">
            <mxPoint x="220" y="270" as="sourcePoint" />
            <mxPoint x="220" y="80" as="targetPoint" />
          </mxGeometry>
        </mxCell>
        <mxCell id="7k_Y_bSzuQ6GdUpV7boS-4" value="" style="endArrow=classic;html=1;rounded=0;" parent="1" edge="1">
          <mxGeometry width="50" height="50" relative="1" as="geometry">
            <mxPoint x="220" y="270" as="sourcePoint" />
            <mxPoint x="170" y="330" as="targetPoint" />
          </mxGeometry>
        </mxCell>
        <mxCell id="7k_Y_bSzuQ6GdUpV7boS-5" value="" style="endArrow=classic;html=1;rounded=0;" parent="1" source="7k_Y_bSzuQ6GdUpV7boS-16" edge="1">
          <mxGeometry width="50" height="50" relative="1" as="geometry">
            <mxPoint x="290" y="140" as="sourcePoint" />
            <mxPoint x="430" y="210" as="targetPoint" />
          </mxGeometry>
        </mxCell>
        <mxCell id="7k_Y_bSzuQ6GdUpV7boS-6" value="A" style="text;html=1;align=center;verticalAlign=middle;resizable=0;points=[];autosize=1;strokeColor=none;fillColor=none;" parent="1" vertex="1">
          <mxGeometry x="275" y="108" width="30" height="30" as="geometry" />
        </mxCell>
        <mxCell id="7k_Y_bSzuQ6GdUpV7boS-7" value="O" style="text;html=1;align=center;verticalAlign=middle;resizable=0;points=[];autosize=1;strokeColor=none;fillColor=none;" parent="1" vertex="1">
          <mxGeometry x="205" y="268" width="30" height="30" as="geometry" />
        </mxCell>
        <mxCell id="7k_Y_bSzuQ6GdUpV7boS-8" value="B" style="text;html=1;align=center;verticalAlign=middle;resizable=0;points=[];autosize=1;strokeColor=none;fillColor=none;" parent="1" vertex="1">
          <mxGeometry x="430" y="190" width="30" height="30" as="geometry" />
        </mxCell>
        <mxCell id="7k_Y_bSzuQ6GdUpV7boS-9" value="M" style="text;html=1;align=center;verticalAlign=middle;resizable=0;points=[];autosize=1;strokeColor=none;fillColor=none;" parent="1" vertex="1">
          <mxGeometry x="340" y="138" width="30" height="30" as="geometry" />
        </mxCell>
        <mxCell id="7k_Y_bSzuQ6GdUpV7boS-15" value="" style="endArrow=classic;html=1;rounded=0;" parent="1" target="7k_Y_bSzuQ6GdUpV7boS-16" edge="1">
          <mxGeometry width="50" height="50" relative="1" as="geometry">
            <mxPoint x="290" y="140" as="sourcePoint" />
            <mxPoint x="430" y="200" as="targetPoint" />
          </mxGeometry>
        </mxCell>
        <mxCell id="7k_Y_bSzuQ6GdUpV7boS-16" value="" style="shape=waypoint;sketch=0;fillStyle=solid;size=6;pointerEvents=1;points=[];fillColor=none;resizable=0;rotatable=0;perimeter=centerPerimeter;snapToPoint=1;" parent="1" vertex="1">
          <mxGeometry x="320" y="150" width="20" height="20" as="geometry" />
        </mxCell>
        <mxCell id="7k_Y_bSzuQ6GdUpV7boS-17" value="" style="endArrow=classic;html=1;rounded=0;exitX=0.5;exitY=0.067;exitDx=0;exitDy=0;exitPerimeter=0;dashed=1;" parent="1" source="7k_Y_bSzuQ6GdUpV7boS-7" edge="1">
          <mxGeometry width="50" height="50" relative="1" as="geometry">
            <mxPoint x="240" y="260" as="sourcePoint" />
            <mxPoint x="290" y="140" as="targetPoint" />
          </mxGeometry>
        </mxCell>
        <mxCell id="7k_Y_bSzuQ6GdUpV7boS-19" value="" style="endArrow=classic;html=1;rounded=0;exitX=0.5;exitY=0.067;exitDx=0;exitDy=0;exitPerimeter=0;dashed=1;" parent="1" source="7k_Y_bSzuQ6GdUpV7boS-7" target="7k_Y_bSzuQ6GdUpV7boS-16" edge="1">
          <mxGeometry width="50" height="50" relative="1" as="geometry">
            <mxPoint x="240" y="260" as="sourcePoint" />
            <mxPoint x="290" y="140" as="targetPoint" />
          </mxGeometry>
        </mxCell>
        <mxCell id="7k_Y_bSzuQ6GdUpV7boS-20" value="" style="endArrow=classic;html=1;rounded=0;exitX=0.5;exitY=0.067;exitDx=0;exitDy=0;exitPerimeter=0;entryX=-0.096;entryY=0.715;entryDx=0;entryDy=0;entryPerimeter=0;dashed=1;" parent="1" source="7k_Y_bSzuQ6GdUpV7boS-7" target="7k_Y_bSzuQ6GdUpV7boS-8" edge="1">
          <mxGeometry width="50" height="50" relative="1" as="geometry">
            <mxPoint x="240" y="260" as="sourcePoint" />
            <mxPoint x="290" y="140" as="targetPoint" />
          </mxGeometry>
        </mxCell>
        <mxCell id="81HBsMbuVERqH7NbA46x-4" value="" style="group" vertex="1" connectable="0" parent="1">
          <mxGeometry x="480" y="114.55" width="220" height="215.45" as="geometry" />
        </mxCell>
        <mxCell id="7k_Y_bSzuQ6GdUpV7boS-22" value="$$&lt;br&gt;\overrightarrow{AM}=&lt;br&gt;\overrightarrow{OM}-\overrightarrow{OA}&lt;br&gt;$$&lt;br&gt;$$&lt;br style=&quot;border-color: var(--border-color);&quot;&gt;\overrightarrow{MB}=&lt;br style=&quot;border-color: var(--border-color);&quot;&gt;\overrightarrow{OB}-\overrightarrow{OM}&lt;br style=&quot;border-color: var(--border-color);&quot;&gt;$$" style="text;html=1;align=center;verticalAlign=middle;resizable=1;points=[];autosize=1;strokeColor=none;fillColor=none;rounded=0;" parent="81HBsMbuVERqH7NbA46x-4" vertex="1">
          <mxGeometry y="59.995454545454564" width="220.00000000000003" height="155.45454545454547" as="geometry" />
        </mxCell>
        <mxCell id="81HBsMbuVERqH7NbA46x-3" value="$$&lt;br&gt;\overrightarrow{AM}=\lambda\overrightarrow{MB}&lt;br&gt;$$" style="text;html=1;strokeColor=none;fillColor=none;align=center;verticalAlign=middle;whiteSpace=wrap;rounded=0;fontSize=12;fontFamily=Helvetica;fontColor=default;" vertex="1" parent="81HBsMbuVERqH7NbA46x-4">
          <mxGeometry width="210" height="60" as="geometry" />
        </mxCell>
      </root>
    </mxGraphModel>
  </diagram>
</mxfile>
